<svg xmlns="http://www.w3.org/2000/svg" viewBox="0 0 64 64" role="img" aria-label="Shopee">
  <rect width="64" height="64" rx="16" fill="#EE4D2D"/>
  <path fill="#fff" d="M44.8 21.8h-5.2C39.1 14.7 35.7 10 32 10s-7.1 4.7-7.6 11.8h-5.2L16.8 52h30.4l-2.4-30.2zM32 13.8c1.9 0 3.6 3.3 4 8h-8c.4-4.7 2.1-8 4-8zm.3 30.1c-4.8 0-8.3-2.9-8.5-3.1l2.5-3c.1.1 2.7 2.2 6 2.2 2 0 3.3-.8 3.3-2.1 0-1.5-1.9-2.1-4.2-2.8-3.1-1-6.7-2.1-6.7-6.2 0-3.7 3.2-6.2 7.6-6.2 4.1 0 6.8 2.1 6.9 2.2l-2.3 3.1c-.1-.1-2-1.5-4.6-1.5-2.1 0-3.5.8-3.5 2.1 0 1.3 1.8 1.9 4 2.6 3.2 1 7 2.2 7 6.5 0 3.9-3 6.2-7.5 6.2z"/>
</svg>
