<svg width="64" height="64" viewBox="0 0 64 64" fill="none" xmlns="http://www.w3.org/2000/svg">
  <rect width="64" height="64" rx="14" fill="#95BF47"/>
  <path d="M43.86 17.52a.58.58 0 0 0-.52-.48l-5.1-.38s-3.54-3.54-3.93-3.93a1.62 1.62 0 0 0-1.4-.28l-1.78.55c-1.05-3.02-2.88-5.8-6.1-5.8h-.28c-.92-1.2-2.06-1.72-3.04-1.72-7.5 0-11.1 9.38-12.22 14.15l-5.42 1.68c-1.68.53-1.73.58-1.95 2.17L.02 48.44 31.14 54.3l16.86-3.64-4.14-33.14ZM29.26 13.58l-2.85.89v-.62c0-1.92-.27-3.46-.7-4.68 1.65.2 2.75 2.08 3.55 4.4Zm-5.55-4.04c.49 1.22.81 2.96.81 5.31v.21l-5.9 1.83c1.14-4.4 3.27-6.52 5.09-7.35Zm-2.2-2.13c.33 0 .67.11.99.34-2.4 1.13-4.98 3.98-6.07 9.82l-4.65 1.44C13.05 14.66 16.08 7.41 21.51 7.41Zm1.84 24.19c-1.82-.98-2.76-1.85-2.76-3.01 0-1.47 1.31-2.42 3.35-2.42 2.37 0 4.5.99 4.5.99l1.67-5.13s-1.54-1.2-6.06-1.2c-6.3 0-10.67 3.61-10.67 8.68 0 2.88 2.04 5.08 4.76 6.65 2.2 1.27 2.98 2.18 2.98 3.54 0 1.41-1.13 2.56-3.25 2.56-3.03 0-5.9-1.57-5.9-1.57l-1.78 5.13s2.65 1.78 7.1 1.78c6.49 0 11.16-3.2 11.16-8.94 0-3.09-2.32-5.29-5.1-6.86Z" fill="white"/>
</svg>
