<svg xmlns="http://www.w3.org/2000/svg" viewBox="0 0 64 64" role="img" aria-label="TikTok Shop">
  <rect width="64" height="64" rx="16" fill="#010101"/>
  <path fill="#25F4EE" d="M37.6 14.5c.4 4.4 2.8 7.4 7 8v6.4c-2.4.1-4.7-.5-7-1.8v12.2c0 8.8-9.6 14.4-17.3 9.6-7.1-4.4-6.2-15.2 1.5-18.6 1.6-.7 3.2-1 5.2-.9v6.8c-.6-.2-1.2-.2-1.8-.1-4.1.5-5.5 6-2 8.2 3.3 2.1 7.6-.3 7.6-4.3V14.5h6.8z"/>
  <path fill="#FE2C55" d="M41.3 18.1c1.2 1.4 2.7 2.4 4.8 2.8v6.4c-2.4.1-4.7-.5-7-1.8v12.2c0 8.8-9.6 14.4-17.3 9.6-2-1.3-3.5-3-4.3-5 1 1.7 2.4 3.2 4.3 4.3 7.7 4.8 17.3-.8 17.3-9.6V24.8c2.2 1.3 4.6 1.9 7 1.8v-3.8c-2.1-.4-3.6-1.4-4.8-2.8v-1.9z"/>
  <path fill="#fff" d="M34.7 14.5c.4 4.4 2.8 7.4 7 8v6.4c-2.4.1-4.7-.5-7-1.8v12.2c0 8.8-9.6 14.4-17.3 9.6-7.1-4.4-6.2-15.2 1.5-18.6 1.6-.7 3.2-1 5.2-.9v6.8c-.6-.2-1.2-.2-1.8-.1-4.1.5-5.5 6-2 8.2 3.3 2.1 7.6-.3 7.6-4.3V14.5h6.8z"/>
</svg>
